<svg xmlns="http://www.w3.org/2000/svg" width="1100" height="394" viewBox="0 0 1100 394">
<rect width="100%" height="100%" rx="24" fill="#0d1117"/>
<text x="42" y="52" fill="#f0f6fc" font-size="24" font-family="Inter,Segoe UI,Arial,sans-serif" font-weight="700">My Programming Languages</text>
<text x="42" y="80" fill="#8b949e" font-size="14" font-family="Inter,Segoe UI,Arial,sans-serif">Share of tracked source-code bytes across owned, non-fork repositories</text>
<rect x="280.0" y="112" width="684.1" height="18" fill="#58a6ff"/>
<rect x="964.1" y="112" width="14.9" height="18" fill="#3fb950"/>
<rect x="979.0" y="112" width="3.0" height="18" fill="#f2cc60"/>
<rect x="982.0" y="112" width="3.0" height="18" fill="#a371f7"/>
<rect x="985.0" y="112" width="3.0" height="18" fill="#f0883e"/>
<rect x="988.0" y="112" width="3.0" height="18" fill="#db61a2"/>
<rect x="980" y="112" width="0" height="18" fill="none"/>
<circle cx="50" cy="164" r="7" fill="#58a6ff"/>
<text x="68" y="169" fill="#f0f6fc" font-size="14" font-family="Inter,Segoe UI,Arial,sans-serif" font-weight="600">JavaScript</text>
<text x="300" y="169" fill="#8b949e" font-size="14" font-family="Inter,Segoe UI,Arial,sans-serif" font-weight="600">97.72%</text>
<rect x="340" y="155" width="640" height="18" rx="9" fill="#21262d"/>
<rect x="340" y="155" width="625.4" height="18" rx="9" fill="#58a6ff"/>
<circle cx="50" cy="210" r="7" fill="#3fb950"/>
<text x="68" y="215" fill="#f0f6fc" font-size="14" font-family="Inter,Segoe UI,Arial,sans-serif" font-weight="600">Dart</text>
<text x="300" y="215" fill="#8b949e" font-size="14" font-family="Inter,Segoe UI,Arial,sans-serif" font-weight="600">2.13%</text>
<rect x="340" y="201" width="640" height="18" rx="9" fill="#21262d"/>
<rect x="340" y="201" width="13.6" height="18" rx="9" fill="#3fb950"/>
<circle cx="50" cy="256" r="7" fill="#f2cc60"/>
<text x="68" y="261" fill="#f0f6fc" font-size="14" font-family="Inter,Segoe UI,Arial,sans-serif" font-weight="600">HTML</text>
<text x="300" y="261" fill="#8b949e" font-size="14" font-family="Inter,Segoe UI,Arial,sans-serif" font-weight="600">0.11%</text>
<rect x="340" y="247" width="640" height="18" rx="9" fill="#21262d"/>
<rect x="340" y="247" width="4.0" height="18" rx="9" fill="#f2cc60"/>
<circle cx="50" cy="302" r="7" fill="#a371f7"/>
<text x="68" y="307" fill="#f0f6fc" font-size="14" font-family="Inter,Segoe UI,Arial,sans-serif" font-weight="600">Swift</text>
<text x="300" y="307" fill="#8b949e" font-size="14" font-family="Inter,Segoe UI,Arial,sans-serif" font-weight="600">0.03%</text>
<rect x="340" y="293" width="640" height="18" rx="9" fill="#21262d"/>
<rect x="340" y="293" width="4.0" height="18" rx="9" fill="#a371f7"/>
<circle cx="50" cy="348" r="7" fill="#f0883e"/>
<text x="68" y="353" fill="#f0f6fc" font-size="14" font-family="Inter,Segoe UI,Arial,sans-serif" font-weight="600">Kotlin</text>
<text x="300" y="353" fill="#8b949e" font-size="14" font-family="Inter,Segoe UI,Arial,sans-serif" font-weight="600">0.01%</text>
<rect x="340" y="339" width="640" height="18" rx="9" fill="#21262d"/>
<rect x="340" y="339" width="4.0" height="18" rx="9" fill="#f0883e"/>
<circle cx="50" cy="394" r="7" fill="#db61a2"/>
<text x="68" y="399" fill="#f0f6fc" font-size="14" font-family="Inter,Segoe UI,Arial,sans-serif" font-weight="600">Objective-C</text>
<text x="300" y="399" fill="#8b949e" font-size="14" font-family="Inter,Segoe UI,Arial,sans-serif" font-weight="600">0.00%</text>
<rect x="340" y="385" width="640" height="18" rx="9" fill="#21262d"/>
<rect x="340" y="385" width="4.0" height="18" rx="9" fill="#db61a2"/>
</svg>