<svg xmlns="http://www.w3.org/2000/svg" width="1200" height="118" viewBox="0 0 1200 118"><g font-family="Inter,Arial,sans-serif"><rect x="18" y="14" rx="16" width="180" height="90" fill="#164F7D"/><rect x="208" y="14" rx="16" width="180" height="90" fill="#236A46"/><rect x="398" y="14" rx="16" width="180" height="90" fill="#245A91"/><rect x="588" y="14" rx="16" width="180" height="90" fill="#96503A"/><rect x="778" y="14" rx="16" width="180" height="90" fill="#1E789A"/><rect x="968" y="14" rx="16" width="214" height="90" fill="#8A4A37"/><circle cx="50" cy="59" r="19" fill="#007ACC"/><text x="50" y="66" text-anchor="middle" font-size="11" font-weight="700" fill="#fff">VS</text><text x="82" y="57" font-size="17" font-weight="700" fill="#fff">VS Code</text><circle cx="240" cy="59" r="19" fill="#3DDC84"/><text x="240" y="66" text-anchor="middle" font-size="11" font-weight="700" fill="#fff">AS</text><text x="272" y="57" font-size="16" font-weight="700" fill="#fff">Android</text><text x="272" y="78" font-size="12" fill="#d9f7e5">Studio</text><circle cx="430" cy="59" r="19" fill="#147EFB"/><text x="430" y="66" text-anchor="middle" font-size="12" font-weight="700" fill="#fff">X</text><text x="462" y="57" font-size="17" font-weight="700" fill="#fff">Xcode</text><circle cx="620" cy="59" r="19" fill="#FF7A59"/><text x="620" y="66" text-anchor="middle" font-size="11" font-weight="700" fill="#fff">PC</text><text x="652" y="57" font-size="17" font-weight="700" fill="#fff">PyCharm</text><circle cx="810" cy="59" r="19" fill="#00AEEF"/><text x="810" y="66" text-anchor="middle" font-size="11" font-weight="700" fill="#fff">WS</text><text x="842" y="57" font-size="16" font-weight="700" fill="#fff">WebStorm</text><circle cx="1000" cy="59" r="19" fill="#F24E1E"/><text x="1000" y="66" text-anchor="middle" font-size="12" font-weight="700" fill="#fff">F</text><text x="1032" y="57" font-size="17" font-weight="700" fill="#fff">Figma</text></g></svg>